<svg xmlns="http://www.w3.org/2000/svg" xmlns:xlink="http://www.w3.org/1999/xlink" width="1200" height="590" viewBox="0 0 1200 590"><style>text{font-family:Arial,sans-serif;fill:#e7edf4} .small{font-size:16px} .wire{fill:none;stroke:#78e8ec;stroke-width:1.5}</style><rect width="1200" height="590" fill="#111b29"/><rect x="40" y="60" width="1120" height="395" rx="3" fill="#163747" stroke="#83a4b4" stroke-width="4"/><path d="M40 410 Q320 399 650 413 T1160 410 L1160 455 L40 455Z" fill="#ad966f"/><path d="M40 85 H1160" stroke="#7eb5bd" stroke-width="2"/><path d="M915 411 Q885 310 960 308 Q1035 310 1040 411" fill="#82646f"/><path d="M908 405 Q884 345 914 322" fill="none" stroke="#c18c9c" stroke-width="8" stroke-linecap="round"/><path d="M919 405 Q895 333 925 335" fill="none" stroke="#c18c9c" stroke-width="8" stroke-linecap="round"/><path d="M930 405 Q906 321 936 348" fill="none" stroke="#c18c9c" stroke-width="8" stroke-linecap="round"/><path d="M941 405 Q917 309 947 322" fill="none" stroke="#c18c9c" stroke-width="8" stroke-linecap="round"/><path d="M952 405 Q928 345 958 335" fill="none" stroke="#c18c9c" stroke-width="8" stroke-linecap="round"/><path d="M963 405 Q939 333 969 348" fill="none" stroke="#c18c9c" stroke-width="8" stroke-linecap="round"/><path d="M974 405 Q950 321 980 322" fill="none" stroke="#c18c9c" stroke-width="8" stroke-linecap="round"/><path d="M985 405 Q961 309 991 335" fill="none" stroke="#c18c9c" stroke-width="8" stroke-linecap="round"/><path d="M996 405 Q972 345 1002 348" fill="none" stroke="#c18c9c" stroke-width="8" stroke-linecap="round"/><path d="M1007 405 Q983 333 1013 322" fill="none" stroke="#c18c9c" stroke-width="8" stroke-linecap="round"/><path d="M1018 405 Q994 321 1024 335" fill="none" stroke="#c18c9c" stroke-width="8" stroke-linecap="round"/><path d="M1029 405 Q1005 309 1035 348" fill="none" stroke="#c18c9c" stroke-width="8" stroke-linecap="round"/><g transform="translate(385,255) scale(0.8340425531914895)"><path d="M0 0 L17 -18 L17 -8 Q52 -33 91 -6 L100 0 L91 6 Q52 33 17 8 L17 18 Z" fill="#ef761c" stroke="#242a30" stroke-width="2"/><path d="M32 -18 L38 18 M61 -19 L67 17 M85 -10 L89 8" stroke="white" stroke-width="7"/><circle cx="90" cy="-4" r="3" fill="#171c22"/></g><g transform="translate(190,170) scale(0.7146910638297872)"><path d="M0 0 L17 -18 L17 -8 Q52 -33 91 -6 L100 0 L91 6 Q52 33 17 8 L17 18 Z" fill="#ef761c" stroke="#242a30" stroke-width="2"/><path d="M32 -18 L38 18 M61 -19 L67 17 M85 -10 L89 8" stroke="white" stroke-width="7"/><circle cx="90" cy="-4" r="3" fill="#171c22"/></g><g transform="translate(355,170) scale(0.6228629787234042)"><path d="M0 0 L17 -18 L17 -8 Q52 -33 91 -6 L100 0 L91 6 Q52 33 17 8 L17 18 Z" fill="#ef761c" stroke="#242a30" stroke-width="2"/><path d="M32 -18 L38 18 M61 -19 L67 17 M85 -10 L89 8" stroke="white" stroke-width="7"/><circle cx="90" cy="-4" r="3" fill="#171c22"/></g><g transform="translate(520,170) scale(0.5310348936170213)"><path d="M0 0 L17 -18 L17 -8 Q52 -33 91 -6 L100 0 L91 6 Q52 33 17 8 L17 18 Z" fill="#ef761c" stroke="#242a30" stroke-width="2"/><path d="M32 -18 L38 18 M61 -19 L67 17 M85 -10 L89 8" stroke="white" stroke-width="7"/><circle cx="90" cy="-4" r="3" fill="#171c22"/></g><g transform="translate(685,170) scale(0.7453004255319151)"><path d="M0 0 L17 -18 L17 -8 Q52 -33 91 -6 L100 0 L91 6 Q52 33 17 8 L17 18 Z" fill="#ef761c" stroke="#242a30" stroke-width="2"/><path d="M32 -18 L38 18 M61 -19 L67 17 M85 -10 L89 8" stroke="white" stroke-width="7"/><circle cx="90" cy="-4" r="3" fill="#171c22"/></g><g transform="translate(850,170) scale(0.6534723404255319)"><path d="M0 0 L17 -18 L17 -8 Q52 -33 91 -6 L100 0 L91 6 Q52 33 17 8 L17 18 Z" fill="#ef761c" stroke="#242a30" stroke-width="2"/><path d="M32 -18 L38 18 M61 -19 L67 17 M85 -10 L89 8" stroke="white" stroke-width="7"/><circle cx="90" cy="-4" r="3" fill="#171c22"/></g><g transform="translate(190,315) scale(0.561644255319149)"><path d="M0 0 L17 -18 L17 -8 Q52 -33 91 -6 L100 0 L91 6 Q52 33 17 8 L17 18 Z" fill="#ef761c" stroke="#242a30" stroke-width="2"/><path d="M32 -18 L38 18 M61 -19 L67 17 M85 -10 L89 8" stroke="white" stroke-width="7"/><circle cx="90" cy="-4" r="3" fill="#171c22"/></g><g transform="translate(355,315) scale(0.7759097872340426)"><path d="M0 0 L17 -18 L17 -8 Q52 -33 91 -6 L100 0 L91 6 Q52 33 17 8 L17 18 Z" fill="#ef761c" stroke="#242a30" stroke-width="2"/><path d="M32 -18 L38 18 M61 -19 L67 17 M85 -10 L89 8" stroke="white" stroke-width="7"/><circle cx="90" cy="-4" r="3" fill="#171c22"/></g><g transform="translate(520,315) scale(0.6840817021276596)"><path d="M0 0 L17 -18 L17 -8 Q52 -33 91 -6 L100 0 L91 6 Q52 33 17 8 L17 18 Z" fill="#ef761c" stroke="#242a30" stroke-width="2"/><path d="M32 -18 L38 18 M61 -19 L67 17 M85 -10 L89 8" stroke="white" stroke-width="7"/><circle cx="90" cy="-4" r="3" fill="#171c22"/></g><g transform="translate(685,315) scale(0.5922536170212767)"><path d="M0 0 L17 -18 L17 -8 Q52 -33 91 -6 L100 0 L91 6 Q52 33 17 8 L17 18 Z" fill="#ef761c" stroke="#242a30" stroke-width="2"/><path d="M32 -18 L38 18 M61 -19 L67 17 M85 -10 L89 8" stroke="white" stroke-width="7"/><circle cx="90" cy="-4" r="3" fill="#171c22"/></g><g transform="translate(850,315) scale(0.5004255319148938)"><path d="M0 0 L17 -18 L17 -8 Q52 -33 91 -6 L100 0 L91 6 Q52 33 17 8 L17 18 Z" fill="#ef761c" stroke="#242a30" stroke-width="2"/><path d="M32 -18 L38 18 M61 -19 L67 17 M85 -10 L89 8" stroke="white" stroke-width="7"/><circle cx="90" cy="-4" r="3" fill="#171c22"/></g><text x="40" y="32" font-size="22">11 clownfish • reference population</text><text x="40" y="500" class="small">Density mockup • 47-inch interior width • fish drawn at proposed side-view scale</text><text x="40" y="529" class="small">Concept layout, not an engine capture. Quad, low-poly and refined phases share these 29 positions.</text><text x="40" y="558" class="small">Player stays 8.89 cm. Grey-pink anemone is a schematic location marker.</text></svg>