<svg xmlns="http://www.w3.org/2000/svg" viewBox="0 0 1000 260" role="img"><rect width="1000" height="260" rx="18" fill="#edf3ef"/><g stroke="#91586b" fill="none" stroke-width="2"><path d="M120 225 Q105 110 163 35 L190 35 Q136 115 146 225Z"/><path d="M127 225 Q116 115 172 35 M137 225 Q126 115 181 35"/><path d="M117 188 L143 188 M115 157 L145 157 M122 122 L155 122 M138 86 L168 86 M157 52 L182 52"/></g><path d="M349 225 Q325 90 397 52 Q408 35 422 49 Q447 72 416 89 Q374 134 375 225Z" fill="#b6697c"/><g fill="#dca48d"><circle cx="407" cy="65" r="4"/><circle cx="411" cy="76" r="3"/><circle cx="385" cy="130" r="2"/><circle cx="366" cy="179" r="2"/></g><rect x="574" y="30" width="365" height="172" rx="8" fill="#b07772"/><g stroke="#d5a28c" opacity=".8" fill="none"><path d="M600 35 Q645 100 623 197 M650 35 Q690 100 683 197 M710 35 Q735 110 746 197 M770 35 Q790 100 806 197 M835 35 Q850 100 868 197"/></g><text x="36" y="253" font-family="sans-serif" font-size="22" fill="#173b43">Curved tube topology</text><text x="316" y="253" font-family="sans-serif" font-size="22" fill="#173b43">Continuous fleshy tip</text><text x="600" y="253" font-family="sans-serif" font-size="22" fill="#173b43">256² atlas · fine markings</text></svg>