<svg xmlns="http://www.w3.org/2000/svg" width="1200" height="655" viewBox="0 0 1200 655"><rect width="1200" height="655" fill="#f3f8fa"/><g font-family="sans-serif"><text x="28" y="35" font-size="25" fill="#183440">One planted Blue Shrimp tank — mixed colony</text><text x="28" y="63" font-size="16" fill="#183440">24 total: 12 Blue Jelly + 12 Blue Dream; one Blue Jelly is the proposed player.</text><rect x="30" y="95" width="1140" height="460" rx="10" fill="#bed9dc" stroke="#537780" stroke-width="7"/><path d="M38,136 H1162" stroke="#f4ffff" stroke-width="4"/><path d="M36,491 Q330,472 620,497 Q880,476 1164,490 V550 H36 Z" fill="#d9c9a2"/><path d="M90,488 Q55,330 77,211 M90,482 Q122,360 114,274" stroke="#528c66" stroke-width="12" fill="none"/><path d="M140,488 Q105,330 127,211 M140,482 Q172,360 164,274" stroke="#528c66" stroke-width="12" fill="none"/><path d="M1030,488 Q995,330 1017,211 M1030,482 Q1062,360 1054,274" stroke="#528c66" stroke-width="12" fill="none"/><path d="M1080,488 Q1045,330 1067,211 M1080,482 Q1112,360 1104,274" stroke="#528c66" stroke-width="12" fill="none"/><path d="M1120,488 Q1085,330 1107,211 M1120,482 Q1152,360 1144,274" stroke="#528c66" stroke-width="12" fill="none"/><ellipse cx="295" cy="463" rx="135" ry="67" fill="#697977"/><ellipse cx="941" cy="475" rx="107" ry="43" fill="#71807a"/><path d="M490,477 Q612,383 747,324 L877,271" stroke="#94765b" stroke-width="24" fill="none"/><path d="M643,397 L613,298" stroke="#94765b" stroke-width="14"/><g transform="translate(90 510) scale(-0.48 0.48)"><path d="M-30,-8 Q-5,-32 26,-14 Q45,-12 47,2 L28,12 Q9,3 -19,17 L-35,12 Z" fill="#218cd1" fill-opacity=".28" stroke="#45a6d4" stroke-opacity=".65" stroke-width="1.2"/><path d="M-35,5 L-56,-7 L-55,15 L-40,19 L-27,11 Z" fill="#218cd1" fill-opacity=".28"/><path d="M-25,-8 L-19,13 M-13,-15 L-7,10 M0,-19 L6,7 M13,-19 L19,7" fill="none" stroke="#73bedd" stroke-opacity=".65" stroke-width="1.2"/><path d="M-29,7 Q-4,-1 24,-3" fill="none" stroke="#827263" stroke-width="2" opacity=".7"/><ellipse cx="26" cy="-2" rx="8" ry="5" fill="#b7a582" opacity=".5"/><path d="M-17,13 L-24,29 M-4,10 L-8,30 M9,9 L13,29 M23,11 L30,29 M34,9 L45,25 M43,-4 Q68,-28 92,-19 M44,-2 Q70,-10 101,1" fill="none" stroke="#59aeca" stroke-opacity=".48" stroke-width="1.4"/><circle cx="42" cy="-9" r="3.3" fill="#071a26"/><circle cx="42.8" cy="-10" r=".8" fill="white"/></g><g transform="translate(182 501) scale(0.48 0.48)"><path d="M-30,-8 Q-5,-32 26,-14 Q45,-12 47,2 L28,12 Q9,3 -19,17 L-35,12 Z" fill="#123ea0" fill-opacity=".88" stroke="#45a6d4" stroke-opacity=".65" stroke-width="1.2"/><path d="M-35,5 L-56,-7 L-55,15 L-40,19 L-27,11 Z" fill="#123ea0" fill-opacity=".88"/><path d="M-25,-8 L-19,13 M-13,-15 L-7,10 M0,-19 L6,7 M13,-19 L19,7" fill="none" stroke="#73bedd" stroke-opacity=".65" stroke-width="1.2"/><path d="M-17,13 L-24,29 M-4,10 L-8,30 M9,9 L13,29 M23,11 L30,29 M34,9 L45,25 M43,-4 Q68,-28 92,-19 M44,-2 Q70,-10 101,1" fill="none" stroke="#59aeca" stroke-opacity=".48" stroke-width="1.4"/><circle cx="42" cy="-9" r="3.3" fill="#071a26"/><circle cx="42.8" cy="-10" r=".8" fill="white"/></g><g transform="translate(274 504) scale(0.48 0.48)"><path d="M-30,-8 Q-5,-32 26,-14 Q45,-12 47,2 L28,12 Q9,3 -19,17 L-35,12 Z" fill="#218cd1" fill-opacity=".28" stroke="#45a6d4" stroke-opacity=".65" stroke-width="1.2"/><path d="M-35,5 L-56,-7 L-55,15 L-40,19 L-27,11 Z" fill="#218cd1" fill-opacity=".28"/><path d="M-25,-8 L-19,13 M-13,-15 L-7,10 M0,-19 L6,7 M13,-19 L19,7" fill="none" stroke="#73bedd" stroke-opacity=".65" stroke-width="1.2"/><path d="M-29,7 Q-4,-1 24,-3" fill="none" stroke="#827263" stroke-width="2" opacity=".7"/><ellipse cx="26" cy="-2" rx="8" ry="5" fill="#b7a582" opacity=".5"/><path d="M-17,13 L-24,29 M-4,10 L-8,30 M9,9 L13,29 M23,11 L30,29 M34,9 L45,25 M43,-4 Q68,-28 92,-19 M44,-2 Q70,-10 101,1" fill="none" stroke="#59aeca" stroke-opacity=".48" stroke-width="1.4"/><circle cx="42" cy="-9" r="3.3" fill="#071a26"/><circle cx="42.8" cy="-10" r=".8" fill="white"/></g><g transform="translate(372 506) scale(-0.48 0.48)"><path d="M-30,-8 Q-5,-32 26,-14 Q45,-12 47,2 L28,12 Q9,3 -19,17 L-35,12 Z" fill="#123ea0" fill-opacity=".88" stroke="#45a6d4" stroke-opacity=".65" stroke-width="1.2"/><path d="M-35,5 L-56,-7 L-55,15 L-40,19 L-27,11 Z" fill="#123ea0" fill-opacity=".88"/><path d="M-25,-8 L-19,13 M-13,-15 L-7,10 M0,-19 L6,7 M13,-19 L19,7" fill="none" stroke="#73bedd" stroke-opacity=".65" stroke-width="1.2"/><path d="M-17,13 L-24,29 M-4,10 L-8,30 M9,9 L13,29 M23,11 L30,29 M34,9 L45,25 M43,-4 Q68,-28 92,-19 M44,-2 Q70,-10 101,1" fill="none" stroke="#59aeca" stroke-opacity=".48" stroke-width="1.4"/><circle cx="42" cy="-9" r="3.3" fill="#071a26"/><circle cx="42.8" cy="-10" r=".8" fill="white"/></g><g transform="translate(459 501) scale(0.48 0.48)"><path d="M-30,-8 Q-5,-32 26,-14 Q45,-12 47,2 L28,12 Q9,3 -19,17 L-35,12 Z" fill="#218cd1" fill-opacity=".28" stroke="#45a6d4" stroke-opacity=".65" stroke-width="1.2"/><path d="M-35,5 L-56,-7 L-55,15 L-40,19 L-27,11 Z" fill="#218cd1" fill-opacity=".28"/><path d="M-25,-8 L-19,13 M-13,-15 L-7,10 M0,-19 L6,7 M13,-19 L19,7" fill="none" stroke="#73bedd" stroke-opacity=".65" stroke-width="1.2"/><path d="M-29,7 Q-4,-1 24,-3" fill="none" stroke="#827263" stroke-width="2" opacity=".7"/><ellipse cx="26" cy="-2" rx="8" ry="5" fill="#b7a582" opacity=".5"/><path d="M-17,13 L-24,29 M-4,10 L-8,30 M9,9 L13,29 M23,11 L30,29 M34,9 L45,25 M43,-4 Q68,-28 92,-19 M44,-2 Q70,-10 101,1" fill="none" stroke="#59aeca" stroke-opacity=".48" stroke-width="1.4"/><circle cx="42" cy="-9" r="3.3" fill="#071a26"/><circle cx="42.8" cy="-10" r=".8" fill="white"/></g><g transform="translate(559 513) scale(0.48 0.48)"><path d="M-30,-8 Q-5,-32 26,-14 Q45,-12 47,2 L28,12 Q9,3 -19,17 L-35,12 Z" fill="#123ea0" fill-opacity=".88" stroke="#45a6d4" stroke-opacity=".65" stroke-width="1.2"/><path d="M-35,5 L-56,-7 L-55,15 L-40,19 L-27,11 Z" fill="#123ea0" fill-opacity=".88"/><path d="M-25,-8 L-19,13 M-13,-15 L-7,10 M0,-19 L6,7 M13,-19 L19,7" fill="none" stroke="#73bedd" stroke-opacity=".65" stroke-width="1.2"/><path d="M-17,13 L-24,29 M-4,10 L-8,30 M9,9 L13,29 M23,11 L30,29 M34,9 L45,25 M43,-4 Q68,-28 92,-19 M44,-2 Q70,-10 101,1" fill="none" stroke="#59aeca" stroke-opacity=".48" stroke-width="1.4"/><circle cx="42" cy="-9" r="3.3" fill="#071a26"/><circle cx="42.8" cy="-10" r=".8" fill="white"/></g><g transform="translate(662 505) scale(-0.48 0.48)"><path d="M-30,-8 Q-5,-32 26,-14 Q45,-12 47,2 L28,12 Q9,3 -19,17 L-35,12 Z" fill="#218cd1" fill-opacity=".28" stroke="#45a6d4" stroke-opacity=".65" stroke-width="1.2"/><path d="M-35,5 L-56,-7 L-55,15 L-40,19 L-27,11 Z" fill="#218cd1" fill-opacity=".28"/><path d="M-25,-8 L-19,13 M-13,-15 L-7,10 M0,-19 L6,7 M13,-19 L19,7" fill="none" stroke="#73bedd" stroke-opacity=".65" stroke-width="1.2"/><path d="M-29,7 Q-4,-1 24,-3" fill="none" stroke="#827263" stroke-width="2" opacity=".7"/><ellipse cx="26" cy="-2" rx="8" ry="5" fill="#b7a582" opacity=".5"/><path d="M-17,13 L-24,29 M-4,10 L-8,30 M9,9 L13,29 M23,11 L30,29 M34,9 L45,25 M43,-4 Q68,-28 92,-19 M44,-2 Q70,-10 101,1" fill="none" stroke="#59aeca" stroke-opacity=".48" stroke-width="1.4"/><circle cx="42" cy="-9" r="3.3" fill="#071a26"/><circle cx="42.8" cy="-10" r=".8" fill="white"/></g><g transform="translate(772 506) scale(0.48 0.48)"><path d="M-30,-8 Q-5,-32 26,-14 Q45,-12 47,2 L28,12 Q9,3 -19,17 L-35,12 Z" fill="#123ea0" fill-opacity=".88" stroke="#45a6d4" stroke-opacity=".65" stroke-width="1.2"/><path d="M-35,5 L-56,-7 L-55,15 L-40,19 L-27,11 Z" fill="#123ea0" fill-opacity=".88"/><path d="M-25,-8 L-19,13 M-13,-15 L-7,10 M0,-19 L6,7 M13,-19 L19,7" fill="none" stroke="#73bedd" stroke-opacity=".65" stroke-width="1.2"/><path d="M-17,13 L-24,29 M-4,10 L-8,30 M9,9 L13,29 M23,11 L30,29 M34,9 L45,25 M43,-4 Q68,-28 92,-19 M44,-2 Q70,-10 101,1" fill="none" stroke="#59aeca" stroke-opacity=".48" stroke-width="1.4"/><circle cx="42" cy="-9" r="3.3" fill="#071a26"/><circle cx="42.8" cy="-10" r=".8" fill="white"/></g><g transform="translate(862 514) scale(0.48 0.48)"><path d="M-30,-8 Q-5,-32 26,-14 Q45,-12 47,2 L28,12 Q9,3 -19,17 L-35,12 Z" fill="#218cd1" fill-opacity=".28" stroke="#45a6d4" stroke-opacity=".65" stroke-width="1.2"/><path d="M-35,5 L-56,-7 L-55,15 L-40,19 L-27,11 Z" fill="#218cd1" fill-opacity=".28"/><path d="M-25,-8 L-19,13 M-13,-15 L-7,10 M0,-19 L6,7 M13,-19 L19,7" fill="none" stroke="#73bedd" stroke-opacity=".65" stroke-width="1.2"/><path d="M-29,7 Q-4,-1 24,-3" fill="none" stroke="#827263" stroke-width="2" opacity=".7"/><ellipse cx="26" cy="-2" rx="8" ry="5" fill="#b7a582" opacity=".5"/><path d="M-17,13 L-24,29 M-4,10 L-8,30 M9,9 L13,29 M23,11 L30,29 M34,9 L45,25 M43,-4 Q68,-28 92,-19 M44,-2 Q70,-10 101,1" fill="none" stroke="#59aeca" stroke-opacity=".48" stroke-width="1.4"/><circle cx="42" cy="-9" r="3.3" fill="#071a26"/><circle cx="42.8" cy="-10" r=".8" fill="white"/></g><g transform="translate(965 505) scale(-0.48 0.48)"><path d="M-30,-8 Q-5,-32 26,-14 Q45,-12 47,2 L28,12 Q9,3 -19,17 L-35,12 Z" fill="#123ea0" fill-opacity=".88" stroke="#45a6d4" stroke-opacity=".65" stroke-width="1.2"/><path d="M-35,5 L-56,-7 L-55,15 L-40,19 L-27,11 Z" fill="#123ea0" fill-opacity=".88"/><path d="M-25,-8 L-19,13 M-13,-15 L-7,10 M0,-19 L6,7 M13,-19 L19,7" fill="none" stroke="#73bedd" stroke-opacity=".65" stroke-width="1.2"/><path d="M-17,13 L-24,29 M-4,10 L-8,30 M9,9 L13,29 M23,11 L30,29 M34,9 L45,25 M43,-4 Q68,-28 92,-19 M44,-2 Q70,-10 101,1" fill="none" stroke="#59aeca" stroke-opacity=".48" stroke-width="1.4"/><circle cx="42" cy="-9" r="3.3" fill="#071a26"/><circle cx="42.8" cy="-10" r=".8" fill="white"/></g><g transform="translate(1065 516) scale(0.48 0.48)"><path d="M-30,-8 Q-5,-32 26,-14 Q45,-12 47,2 L28,12 Q9,3 -19,17 L-35,12 Z" fill="#218cd1" fill-opacity=".28" stroke="#45a6d4" stroke-opacity=".65" stroke-width="1.2"/><path d="M-35,5 L-56,-7 L-55,15 L-40,19 L-27,11 Z" fill="#218cd1" fill-opacity=".28"/><path d="M-25,-8 L-19,13 M-13,-15 L-7,10 M0,-19 L6,7 M13,-19 L19,7" fill="none" stroke="#73bedd" stroke-opacity=".65" stroke-width="1.2"/><path d="M-29,7 Q-4,-1 24,-3" fill="none" stroke="#827263" stroke-width="2" opacity=".7"/><ellipse cx="26" cy="-2" rx="8" ry="5" fill="#b7a582" opacity=".5"/><path d="M-17,13 L-24,29 M-4,10 L-8,30 M9,9 L13,29 M23,11 L30,29 M34,9 L45,25 M43,-4 Q68,-28 92,-19 M44,-2 Q70,-10 101,1" fill="none" stroke="#59aeca" stroke-opacity=".48" stroke-width="1.4"/><circle cx="42" cy="-9" r="3.3" fill="#071a26"/><circle cx="42.8" cy="-10" r=".8" fill="white"/></g><g transform="translate(1131 510) scale(0.48 0.48)"><path d="M-30,-8 Q-5,-32 26,-14 Q45,-12 47,2 L28,12 Q9,3 -19,17 L-35,12 Z" fill="#123ea0" fill-opacity=".88" stroke="#45a6d4" stroke-opacity=".65" stroke-width="1.2"/><path d="M-35,5 L-56,-7 L-55,15 L-40,19 L-27,11 Z" fill="#123ea0" fill-opacity=".88"/><path d="M-25,-8 L-19,13 M-13,-15 L-7,10 M0,-19 L6,7 M13,-19 L19,7" fill="none" stroke="#73bedd" stroke-opacity=".65" stroke-width="1.2"/><path d="M-17,13 L-24,29 M-4,10 L-8,30 M9,9 L13,29 M23,11 L30,29 M34,9 L45,25 M43,-4 Q68,-28 92,-19 M44,-2 Q70,-10 101,1" fill="none" stroke="#59aeca" stroke-opacity=".48" stroke-width="1.4"/><circle cx="42" cy="-9" r="3.3" fill="#071a26"/><circle cx="42.8" cy="-10" r=".8" fill="white"/></g><g transform="translate(210 424) scale(-0.48 0.48)"><path d="M-30,-8 Q-5,-32 26,-14 Q45,-12 47,2 L28,12 Q9,3 -19,17 L-35,12 Z" fill="#218cd1" fill-opacity=".28" stroke="#45a6d4" stroke-opacity=".65" stroke-width="1.2"/><path d="M-35,5 L-56,-7 L-55,15 L-40,19 L-27,11 Z" fill="#218cd1" fill-opacity=".28"/><path d="M-25,-8 L-19,13 M-13,-15 L-7,10 M0,-19 L6,7 M13,-19 L19,7" fill="none" stroke="#73bedd" stroke-opacity=".65" stroke-width="1.2"/><path d="M-29,7 Q-4,-1 24,-3" fill="none" stroke="#827263" stroke-width="2" opacity=".7"/><ellipse cx="26" cy="-2" rx="8" ry="5" fill="#b7a582" opacity=".5"/><path d="M-17,13 L-24,29 M-4,10 L-8,30 M9,9 L13,29 M23,11 L30,29 M34,9 L45,25 M43,-4 Q68,-28 92,-19 M44,-2 Q70,-10 101,1" fill="none" stroke="#59aeca" stroke-opacity=".48" stroke-width="1.4"/><circle cx="42" cy="-9" r="3.3" fill="#071a26"/><circle cx="42.8" cy="-10" r=".8" fill="white"/></g><g transform="translate(299 402) scale(0.48 0.48)"><path d="M-30,-8 Q-5,-32 26,-14 Q45,-12 47,2 L28,12 Q9,3 -19,17 L-35,12 Z" fill="#123ea0" fill-opacity=".88" stroke="#45a6d4" stroke-opacity=".65" stroke-width="1.2"/><path d="M-35,5 L-56,-7 L-55,15 L-40,19 L-27,11 Z" fill="#123ea0" fill-opacity=".88"/><path d="M-25,-8 L-19,13 M-13,-15 L-7,10 M0,-19 L6,7 M13,-19 L19,7" fill="none" stroke="#73bedd" stroke-opacity=".65" stroke-width="1.2"/><path d="M-17,13 L-24,29 M-4,10 L-8,30 M9,9 L13,29 M23,11 L30,29 M34,9 L45,25 M43,-4 Q68,-28 92,-19 M44,-2 Q70,-10 101,1" fill="none" stroke="#59aeca" stroke-opacity=".48" stroke-width="1.4"/><circle cx="42" cy="-9" r="3.3" fill="#071a26"/><circle cx="42.8" cy="-10" r=".8" fill="white"/></g><g transform="translate(384 431) scale(0.48 0.48)"><path d="M-30,-8 Q-5,-32 26,-14 Q45,-12 47,2 L28,12 Q9,3 -19,17 L-35,12 Z" fill="#218cd1" fill-opacity=".28" stroke="#45a6d4" stroke-opacity=".65" stroke-width="1.2"/><path d="M-35,5 L-56,-7 L-55,15 L-40,19 L-27,11 Z" fill="#218cd1" fill-opacity=".28"/><path d="M-25,-8 L-19,13 M-13,-15 L-7,10 M0,-19 L6,7 M13,-19 L19,7" fill="none" stroke="#73bedd" stroke-opacity=".65" stroke-width="1.2"/><path d="M-29,7 Q-4,-1 24,-3" fill="none" stroke="#827263" stroke-width="2" opacity=".7"/><ellipse cx="26" cy="-2" rx="8" ry="5" fill="#b7a582" opacity=".5"/><path d="M-17,13 L-24,29 M-4,10 L-8,30 M9,9 L13,29 M23,11 L30,29 M34,9 L45,25 M43,-4 Q68,-28 92,-19 M44,-2 Q70,-10 101,1" fill="none" stroke="#59aeca" stroke-opacity=".48" stroke-width="1.4"/><circle cx="42" cy="-9" r="3.3" fill="#071a26"/><circle cx="42.8" cy="-10" r=".8" fill="white"/></g><g transform="translate(856 449) scale(-0.48 0.48)"><path d="M-30,-8 Q-5,-32 26,-14 Q45,-12 47,2 L28,12 Q9,3 -19,17 L-35,12 Z" fill="#123ea0" fill-opacity=".88" stroke="#45a6d4" stroke-opacity=".65" stroke-width="1.2"/><path d="M-35,5 L-56,-7 L-55,15 L-40,19 L-27,11 Z" fill="#123ea0" fill-opacity=".88"/><path d="M-25,-8 L-19,13 M-13,-15 L-7,10 M0,-19 L6,7 M13,-19 L19,7" fill="none" stroke="#73bedd" stroke-opacity=".65" stroke-width="1.2"/><path d="M-17,13 L-24,29 M-4,10 L-8,30 M9,9 L13,29 M23,11 L30,29 M34,9 L45,25 M43,-4 Q68,-28 92,-19 M44,-2 Q70,-10 101,1" fill="none" stroke="#59aeca" stroke-opacity=".48" stroke-width="1.4"/><circle cx="42" cy="-9" r="3.3" fill="#071a26"/><circle cx="42.8" cy="-10" r=".8" fill="white"/></g><g transform="translate(960 435) scale(0.48 0.48)"><path d="M-30,-8 Q-5,-32 26,-14 Q45,-12 47,2 L28,12 Q9,3 -19,17 L-35,12 Z" fill="#218cd1" fill-opacity=".28" stroke="#45a6d4" stroke-opacity=".65" stroke-width="1.2"/><path d="M-35,5 L-56,-7 L-55,15 L-40,19 L-27,11 Z" fill="#218cd1" fill-opacity=".28"/><path d="M-25,-8 L-19,13 M-13,-15 L-7,10 M0,-19 L6,7 M13,-19 L19,7" fill="none" stroke="#73bedd" stroke-opacity=".65" stroke-width="1.2"/><path d="M-29,7 Q-4,-1 24,-3" fill="none" stroke="#827263" stroke-width="2" opacity=".7"/><ellipse cx="26" cy="-2" rx="8" ry="5" fill="#b7a582" opacity=".5"/><path d="M-17,13 L-24,29 M-4,10 L-8,30 M9,9 L13,29 M23,11 L30,29 M34,9 L45,25 M43,-4 Q68,-28 92,-19 M44,-2 Q70,-10 101,1" fill="none" stroke="#59aeca" stroke-opacity=".48" stroke-width="1.4"/><circle cx="42" cy="-9" r="3.3" fill="#071a26"/><circle cx="42.8" cy="-10" r=".8" fill="white"/></g><g transform="translate(1042 460) scale(0.48 0.48)"><path d="M-30,-8 Q-5,-32 26,-14 Q45,-12 47,2 L28,12 Q9,3 -19,17 L-35,12 Z" fill="#123ea0" fill-opacity=".88" stroke="#45a6d4" stroke-opacity=".65" stroke-width="1.2"/><path d="M-35,5 L-56,-7 L-55,15 L-40,19 L-27,11 Z" fill="#123ea0" fill-opacity=".88"/><path d="M-25,-8 L-19,13 M-13,-15 L-7,10 M0,-19 L6,7 M13,-19 L19,7" fill="none" stroke="#73bedd" stroke-opacity=".65" stroke-width="1.2"/><path d="M-17,13 L-24,29 M-4,10 L-8,30 M9,9 L13,29 M23,11 L30,29 M34,9 L45,25 M43,-4 Q68,-28 92,-19 M44,-2 Q70,-10 101,1" fill="none" stroke="#59aeca" stroke-opacity=".48" stroke-width="1.4"/><circle cx="42" cy="-9" r="3.3" fill="#071a26"/><circle cx="42.8" cy="-10" r=".8" fill="white"/></g><g transform="translate(571 414) scale(-0.56 0.56)"><path d="M-30,-8 Q-5,-32 26,-14 Q45,-12 47,2 L28,12 Q9,3 -19,17 L-35,12 Z" fill="#218cd1" fill-opacity=".28" stroke="#45a6d4" stroke-opacity=".65" stroke-width="1.2"/><path d="M-35,5 L-56,-7 L-55,15 L-40,19 L-27,11 Z" fill="#218cd1" fill-opacity=".28"/><path d="M-25,-8 L-19,13 M-13,-15 L-7,10 M0,-19 L6,7 M13,-19 L19,7" fill="none" stroke="#73bedd" stroke-opacity=".65" stroke-width="1.2"/><path d="M-29,7 Q-4,-1 24,-3" fill="none" stroke="#827263" stroke-width="2" opacity=".7"/><ellipse cx="26" cy="-2" rx="8" ry="5" fill="#b7a582" opacity=".5"/><path d="M-17,13 L-24,29 M-4,10 L-8,30 M9,9 L13,29 M23,11 L30,29 M34,9 L45,25 M43,-4 Q68,-28 92,-19 M44,-2 Q70,-10 101,1" fill="none" stroke="#59aeca" stroke-opacity=".48" stroke-width="1.4"/><circle cx="42" cy="-9" r="3.3" fill="#071a26"/><circle cx="42.8" cy="-10" r=".8" fill="white"/></g><g transform="translate(682 365) scale(0.56 0.56)"><path d="M-30,-8 Q-5,-32 26,-14 Q45,-12 47,2 L28,12 Q9,3 -19,17 L-35,12 Z" fill="#123ea0" fill-opacity=".88" stroke="#45a6d4" stroke-opacity=".65" stroke-width="1.2"/><path d="M-35,5 L-56,-7 L-55,15 L-40,19 L-27,11 Z" fill="#123ea0" fill-opacity=".88"/><path d="M-25,-8 L-19,13 M-13,-15 L-7,10 M0,-19 L6,7 M13,-19 L19,7" fill="none" stroke="#73bedd" stroke-opacity=".65" stroke-width="1.2"/><path d="M-17,13 L-24,29 M-4,10 L-8,30 M9,9 L13,29 M23,11 L30,29 M34,9 L45,25 M43,-4 Q68,-28 92,-19 M44,-2 Q70,-10 101,1" fill="none" stroke="#59aeca" stroke-opacity=".48" stroke-width="1.4"/><circle cx="42" cy="-9" r="3.3" fill="#071a26"/><circle cx="42.8" cy="-10" r=".8" fill="white"/></g><g transform="translate(824 306) scale(0.56 0.56)"><path d="M-30,-8 Q-5,-32 26,-14 Q45,-12 47,2 L28,12 Q9,3 -19,17 L-35,12 Z" fill="#218cd1" fill-opacity=".28" stroke="#45a6d4" stroke-opacity=".65" stroke-width="1.2"/><path d="M-35,5 L-56,-7 L-55,15 L-40,19 L-27,11 Z" fill="#218cd1" fill-opacity=".28"/><path d="M-25,-8 L-19,13 M-13,-15 L-7,10 M0,-19 L6,7 M13,-19 L19,7" fill="none" stroke="#73bedd" stroke-opacity=".65" stroke-width="1.2"/><path d="M-29,7 Q-4,-1 24,-3" fill="none" stroke="#827263" stroke-width="2" opacity=".7"/><ellipse cx="26" cy="-2" rx="8" ry="5" fill="#b7a582" opacity=".5"/><path d="M-17,13 L-24,29 M-4,10 L-8,30 M9,9 L13,29 M23,11 L30,29 M34,9 L45,25 M43,-4 Q68,-28 92,-19 M44,-2 Q70,-10 101,1" fill="none" stroke="#59aeca" stroke-opacity=".48" stroke-width="1.4"/><circle cx="42" cy="-9" r="3.3" fill="#071a26"/><circle cx="42.8" cy="-10" r=".8" fill="white"/></g><g transform="translate(401 246) scale(-0.56 0.56)"><path d="M-30,-8 Q-5,-32 26,-14 Q45,-12 47,2 L28,12 Q9,3 -19,17 L-35,12 Z" fill="#123ea0" fill-opacity=".88" stroke="#45a6d4" stroke-opacity=".65" stroke-width="1.2"/><path d="M-35,5 L-56,-7 L-55,15 L-40,19 L-27,11 Z" fill="#123ea0" fill-opacity=".88"/><path d="M-25,-8 L-19,13 M-13,-15 L-7,10 M0,-19 L6,7 M13,-19 L19,7" fill="none" stroke="#73bedd" stroke-opacity=".65" stroke-width="1.2"/><path d="M-17,13 L-24,29 M-4,10 L-8,30 M9,9 L13,29 M23,11 L30,29 M34,9 L45,25 M43,-4 Q68,-28 92,-19 M44,-2 Q70,-10 101,1" fill="none" stroke="#59aeca" stroke-opacity=".48" stroke-width="1.4"/><circle cx="42" cy="-9" r="3.3" fill="#071a26"/><circle cx="42.8" cy="-10" r=".8" fill="white"/></g><g transform="translate(937 224) scale(0.56 0.56)"><path d="M-30,-8 Q-5,-32 26,-14 Q45,-12 47,2 L28,12 Q9,3 -19,17 L-35,12 Z" fill="#218cd1" fill-opacity=".28" stroke="#45a6d4" stroke-opacity=".65" stroke-width="1.2"/><path d="M-35,5 L-56,-7 L-55,15 L-40,19 L-27,11 Z" fill="#218cd1" fill-opacity=".28"/><path d="M-25,-8 L-19,13 M-13,-15 L-7,10 M0,-19 L6,7 M13,-19 L19,7" fill="none" stroke="#73bedd" stroke-opacity=".65" stroke-width="1.2"/><path d="M-29,7 Q-4,-1 24,-3" fill="none" stroke="#827263" stroke-width="2" opacity=".7"/><ellipse cx="26" cy="-2" rx="8" ry="5" fill="#b7a582" opacity=".5"/><path d="M-17,13 L-24,29 M-4,10 L-8,30 M9,9 L13,29 M23,11 L30,29 M34,9 L45,25 M43,-4 Q68,-28 92,-19 M44,-2 Q70,-10 101,1" fill="none" stroke="#59aeca" stroke-opacity=".48" stroke-width="1.4"/><circle cx="42" cy="-9" r="3.3" fill="#071a26"/><circle cx="42.8" cy="-10" r=".8" fill="white"/></g><g transform="translate(583 269) scale(0.56 0.56)"><path d="M-30,-8 Q-5,-32 26,-14 Q45,-12 47,2 L28,12 Q9,3 -19,17 L-35,12 Z" fill="#123ea0" fill-opacity=".88" stroke="#45a6d4" stroke-opacity=".65" stroke-width="1.2"/><path d="M-35,5 L-56,-7 L-55,15 L-40,19 L-27,11 Z" fill="#123ea0" fill-opacity=".88"/><path d="M-25,-8 L-19,13 M-13,-15 L-7,10 M0,-19 L6,7 M13,-19 L19,7" fill="none" stroke="#73bedd" stroke-opacity=".65" stroke-width="1.2"/><path d="M-17,13 L-24,29 M-4,10 L-8,30 M9,9 L13,29 M23,11 L30,29 M34,9 L45,25 M43,-4 Q68,-28 92,-19 M44,-2 Q70,-10 101,1" fill="none" stroke="#59aeca" stroke-opacity=".48" stroke-width="1.4"/><circle cx="42" cy="-9" r="3.3" fill="#071a26"/><circle cx="42.8" cy="-10" r=".8" fill="white"/></g><circle cx="90" cy="510" r="29" stroke="#e49324" stroke-width="2" stroke-dasharray="5 4" fill="none"/><text x="30" y="594" font-size="17" fill="#183440">Pale blue: Jelly     •     Deep blue: Dream     •     Dashed ring: proposed player framing, not a HUD feature</text><text x="30" y="626" font-size="16" fill="#183440">Mixed grazing patches and excursions; retain existing routes and total count. Positions here are illustrative.</text></g></svg>