<svg xmlns="http://www.w3.org/2000/svg" xmlns:xlink="http://www.w3.org/1999/xlink" viewBox="0 0 1200 570"><style>text{font-family:DejaVu Sans,sans-serif}</style><rect x="0" y="0" width="1200" height="570" fill="#f6f4e8" rx="0"/><text x="35" y="43" font-size="29" fill="#22372d" font-weight="bold">Biological clumps are independent of render chunks</text><circle cx="200" cy="190" r="100" fill="#dce6c8"/><path d="M200,190 L166.7702608110459,186.608000291071" fill="none" stroke="#8c7d52" stroke-width="2" opacity="1" stroke-linecap="round" stroke-linejoin="round"/><circle cx="166.7702608110459" cy="186.608000291071" r="6" fill="#658a4e"/><path d="M166.7702608110459,186.608000291071 L180.90878446363342,143.81037299761115" fill="none" stroke="#8c7d52" stroke-width="2" opacity="1" stroke-linecap="round" stroke-linejoin="round"/><circle cx="180.90878446363342" cy="143.81037299761115" r="6" fill="#658a4e"/><path d="M180.90878446363342,143.81037299761115 L182.4917975584593,123.22608151954529" fill="none" stroke="#8c7d52" stroke-width="2" opacity="1" stroke-linecap="round" stroke-linejoin="round"/><circle cx="182.4917975584593" cy="123.22608151954529" r="6" fill="#658a4e"/><path d="M182.4917975584593,123.22608151954529 L204.83329567637023,157.89639501599444" fill="none" stroke="#8c7d52" stroke-width="2" opacity="1" stroke-linecap="round" stroke-linejoin="round"/><circle cx="204.83329567637023" cy="157.89639501599444" r="6" fill="#658a4e"/><path d="M200,190 L167.9762909004102,174.29123133855322" fill="none" stroke="#8c7d52" stroke-width="2" opacity="1" stroke-linecap="round" stroke-linejoin="round"/><circle cx="167.9762909004102" cy="174.29123133855322" r="6" fill="#658a4e"/><path d="M200,190 L218.03435926483235,195.05658769002693" fill="none" stroke="#8c7d52" stroke-width="2" opacity="1" stroke-linecap="round" stroke-linejoin="round"/><circle cx="218.03435926483235" cy="195.05658769002693" r="6" fill="#658a4e"/><path d="M167.9762909004102,174.29123133855322 L180.97003264328976,134.18992992246848" fill="none" stroke="#8c7d52" stroke-width="2" opacity="1" stroke-linecap="round" stroke-linejoin="round"/><circle cx="180.97003264328976" cy="134.18992992246848" r="6" fill="#658a4e"/><path d="M180.90878446363342,143.81037299761115 L163.2989094238938,129.98342071535404" fill="none" stroke="#8c7d52" stroke-width="2" opacity="1" stroke-linecap="round" stroke-linejoin="round"/><circle cx="163.2989094238938" cy="129.98342071535404" r="6" fill="#658a4e"/><path d="M218.03435926483235,195.05658769002693 L181.34818512724382,199.036545733024" fill="none" stroke="#8c7d52" stroke-width="2" opacity="1" stroke-linecap="round" stroke-linejoin="round"/><circle cx="181.34818512724382" cy="199.036545733024" r="6" fill="#658a4e"/><path d="M180.90878446363342,143.81037299761115 L172.41506129465049,107.93475057318568" fill="none" stroke="#8c7d52" stroke-width="2" opacity="1" stroke-linecap="round" stroke-linejoin="round"/><circle cx="172.41506129465049" cy="107.93475057318568" r="6" fill="#658a4e"/><path d="M180.90878446363342,143.81037299761115 L185.98514616826114,124.55767648073925" fill="none" stroke="#8c7d52" stroke-width="2" opacity="1" stroke-linecap="round" stroke-linejoin="round"/><circle cx="185.98514616826114" cy="124.55767648073925" r="6" fill="#658a4e"/><path d="M167.9762909004102,174.29123133855322 L146.22148463889258,187.86447336632133" fill="none" stroke="#8c7d52" stroke-width="2" opacity="1" stroke-linecap="round" stroke-linejoin="round"/><circle cx="146.22148463889258" cy="187.86447336632133" r="6" fill="#658a4e"/><path d="M180.90878446363342,143.81037299761115 L171.86142547005952,121.42029292013294" fill="none" stroke="#8c7d52" stroke-width="2" opacity="1" stroke-linecap="round" stroke-linejoin="round"/><circle cx="171.86142547005952" cy="121.42029292013294" r="6" fill="#658a4e"/><path d="M180.90878446363342,143.81037299761115 L222.27825924896985,134.30234246796954" fill="none" stroke="#8c7d52" stroke-width="2" opacity="1" stroke-linecap="round" stroke-linejoin="round"/><circle cx="222.27825924896985" cy="134.30234246796954" r="6" fill="#658a4e"/><path d="M180.90878446363342,143.81037299761115 L162.84745412929908,145.97382286925642" fill="none" stroke="#8c7d52" stroke-width="2" opacity="1" stroke-linecap="round" stroke-linejoin="round"/><circle cx="162.84745412929908" cy="145.97382286925642" r="6" fill="#658a4e"/><path d="M181.34818512724382,199.036545733024 L172.32209878505194,234.47002487636234" fill="none" stroke="#8c7d52" stroke-width="2" opacity="1" stroke-linecap="round" stroke-linejoin="round"/><circle cx="172.32209878505194" cy="234.47002487636234" r="6" fill="#658a4e"/><path d="M182.4917975584593,123.22608151954529 L212.98019127282583,93.06105447008966" fill="none" stroke="#8c7d52" stroke-width="2" opacity="1" stroke-linecap="round" stroke-linejoin="round"/><circle cx="212.98019127282583" cy="93.06105447008966" r="6" fill="#658a4e"/><path d="M172.32209878505194,234.47002487636234 L199.13479677468115,244.2818486812938" fill="none" stroke="#8c7d52" stroke-width="2" opacity="1" stroke-linecap="round" stroke-linejoin="round"/><circle cx="199.13479677468115" cy="244.2818486812938" r="6" fill="#658a4e"/><path d="M181.34818512724382,199.036545733024 L172.0636130369031,216.7908627081367" fill="none" stroke="#8c7d52" stroke-width="2" opacity="1" stroke-linecap="round" stroke-linejoin="round"/><circle cx="172.0636130369031" cy="216.7908627081367" r="6" fill="#658a4e"/><path d="M162.84745412929908,145.97382286925642 L136.590671479359,147.6846419816836" fill="none" stroke="#8c7d52" stroke-width="2" opacity="1" stroke-linecap="round" stroke-linejoin="round"/><circle cx="136.590671479359" cy="147.6846419816836" r="6" fill="#658a4e"/><path d="M180.97003264328976,134.18992992246848 L139.41293000717744,116.98860794424763" fill="none" stroke="#8c7d52" stroke-width="2" opacity="1" stroke-linecap="round" stroke-linejoin="round"/><circle cx="139.41293000717744" cy="116.98860794424763" r="6" fill="#658a4e"/><circle cx="430" cy="285" r="135" fill="#dce6c8"/><path d="M430,285 L440.85942119000174,264.52558165969447" fill="none" stroke="#8c7d52" stroke-width="2" opacity="1" stroke-linecap="round" stroke-linejoin="round"/><circle cx="440.85942119000174" cy="264.52558165969447" r="6" fill="#658a4e"/><path d="M440.85942119000174,264.52558165969447 L460.8822203937333,265.61822080367057" fill="none" stroke="#8c7d52" stroke-width="2" opacity="1" stroke-linecap="round" stroke-linejoin="round"/><circle cx="460.8822203937333" cy="265.61822080367057" r="6" fill="#658a4e"/><path d="M460.8822203937333,265.61822080367057 L434.2461520300692,257.23970206248134" fill="none" stroke="#8c7d52" stroke-width="2" opacity="1" stroke-linecap="round" stroke-linejoin="round"/><circle cx="434.2461520300692" cy="257.23970206248134" r="6" fill="#658a4e"/><path d="M434.2461520300692,257.23970206248134 L417.4640975766334,220.13059379153344" fill="none" stroke="#8c7d52" stroke-width="2" opacity="1" stroke-linecap="round" stroke-linejoin="round"/><circle cx="417.4640975766334" cy="220.13059379153344" r="6" fill="#658a4e"/><path d="M440.85942119000174,264.52558165969447 L481.78193397051405,252.04352686435232" fill="none" stroke="#8c7d52" stroke-width="2" opacity="1" stroke-linecap="round" stroke-linejoin="round"/><circle cx="481.78193397051405" cy="252.04352686435232" r="6" fill="#658a4e"/><path d="M417.4640975766334,220.13059379153344 L400.4907962436284,248.55950501866627" fill="none" stroke="#8c7d52" stroke-width="2" opacity="1" stroke-linecap="round" stroke-linejoin="round"/><circle cx="400.4907962436284" cy="248.55950501866627" r="6" fill="#658a4e"/><path d="M430,285 L462.300846547028,290.0398881511956" fill="none" stroke="#8c7d52" stroke-width="2" opacity="1" stroke-linecap="round" stroke-linejoin="round"/><circle cx="462.300846547028" cy="290.0398881511956" r="6" fill="#658a4e"/><path d="M400.4907962436284,248.55950501866627 L372.83266068398666,267.219773411795" fill="none" stroke="#8c7d52" stroke-width="2" opacity="1" stroke-linecap="round" stroke-linejoin="round"/><circle cx="372.83266068398666" cy="267.219773411795" r="6" fill="#658a4e"/><path d="M434.2461520300692,257.23970206248134 L414.7682144030965,279.5520587913749" fill="none" stroke="#8c7d52" stroke-width="2" opacity="1" stroke-linecap="round" stroke-linejoin="round"/><circle cx="414.7682144030965" cy="279.5520587913749" r="6" fill="#658a4e"/><path d="M417.4640975766334,220.13059379153344 L428.7036695813354,241.0446458519786" fill="none" stroke="#8c7d52" stroke-width="2" opacity="1" stroke-linecap="round" stroke-linejoin="round"/><circle cx="428.7036695813354" cy="241.0446458519786" r="6" fill="#658a4e"/><path d="M428.7036695813354,241.0446458519786 L458.1079992193064,239.5155654158083" fill="none" stroke="#8c7d52" stroke-width="2" opacity="1" stroke-linecap="round" stroke-linejoin="round"/><circle cx="458.1079992193064" cy="239.5155654158083" r="6" fill="#658a4e"/><path d="M458.1079992193064,239.5155654158083 L425.0728844055174,216.2986294443353" fill="none" stroke="#8c7d52" stroke-width="2" opacity="1" stroke-linecap="round" stroke-linejoin="round"/><circle cx="425.0728844055174" cy="216.2986294443353" r="6" fill="#658a4e"/><path d="M460.8822203937333,265.61822080367057 L443.6790993377707,255.61738804918048" fill="none" stroke="#8c7d52" stroke-width="2" opacity="1" stroke-linecap="round" stroke-linejoin="round"/><circle cx="443.6790993377707" cy="255.61738804918048" r="6" fill="#658a4e"/><path d="M372.83266068398666,267.219773411795 L357.71697165069855,249.6381504838721" fill="none" stroke="#8c7d52" stroke-width="2" opacity="1" stroke-linecap="round" stroke-linejoin="round"/><circle cx="357.71697165069855" cy="249.6381504838721" r="6" fill="#658a4e"/><path d="M414.7682144030965,279.5520587913749 L426.9067016938007,309.8273802635783" fill="none" stroke="#8c7d52" stroke-width="2" opacity="1" stroke-linecap="round" stroke-linejoin="round"/><circle cx="426.9067016938007" cy="309.8273802635783" r="6" fill="#658a4e"/><path d="M425.0728844055174,216.2986294443353 L445.05103168577574,221.1613428708047" fill="none" stroke="#8c7d52" stroke-width="2" opacity="1" stroke-linecap="round" stroke-linejoin="round"/><circle cx="445.05103168577574" cy="221.1613428708047" r="6" fill="#658a4e"/><path d="M414.7682144030965,279.5520587913749 L396.01710188049225,293.356397595064" fill="none" stroke="#8c7d52" stroke-width="2" opacity="1" stroke-linecap="round" stroke-linejoin="round"/><circle cx="396.01710188049225" cy="293.356397595064" r="6" fill="#658a4e"/><path d="M400.4907962436284,248.55950501866627 L407.91204069354956,215.6623352430598" fill="none" stroke="#8c7d52" stroke-width="2" opacity="1" stroke-linecap="round" stroke-linejoin="round"/><circle cx="407.91204069354956" cy="215.6623352430598" r="6" fill="#658a4e"/><path d="M428.7036695813354,241.0446458519786 L410.28112341891523,211.62023028300587" fill="none" stroke="#8c7d52" stroke-width="2" opacity="1" stroke-linecap="round" stroke-linejoin="round"/><circle cx="410.28112341891523" cy="211.62023028300587" r="6" fill="#658a4e"/><path d="M400.4907962436284,248.55950501866627 L365.4102119874452,263.6269520934966" fill="none" stroke="#8c7d52" stroke-width="2" opacity="1" stroke-linecap="round" stroke-linejoin="round"/><circle cx="365.4102119874452" cy="263.6269520934966" r="6" fill="#658a4e"/><path d="M481.78193397051405,252.04352686435232 L509.4515532239292,243.409624683697" fill="none" stroke="#8c7d52" stroke-width="2" opacity="1" stroke-linecap="round" stroke-linejoin="round"/><circle cx="509.4515532239292" cy="243.409624683697" r="6" fill="#658a4e"/><path d="M434.2461520300692,257.23970206248134 L461.35129432860987,263.77381498416526" fill="none" stroke="#8c7d52" stroke-width="2" opacity="1" stroke-linecap="round" stroke-linejoin="round"/><circle cx="461.35129432860987" cy="263.77381498416526" r="6" fill="#658a4e"/><circle cx="700" cy="155" r="105" fill="#dce6c8"/><path d="M700,155 L675.6545873135427,132.1245727822813" fill="none" stroke="#8c7d52" stroke-width="2" opacity="1" stroke-linecap="round" stroke-linejoin="round"/><circle cx="675.6545873135427" cy="132.1245727822813" r="6" fill="#658a4e"/><path d="M675.6545873135427,132.1245727822813 L634.2240376995053,121.66069486250916" fill="none" stroke="#8c7d52" stroke-width="2" opacity="1" stroke-linecap="round" stroke-linejoin="round"/><circle cx="634.2240376995053" cy="121.66069486250916" r="6" fill="#658a4e"/><path d="M675.6545873135427,132.1245727822813 L674.1963413318106,158.09434646507958" fill="none" stroke="#8c7d52" stroke-width="2" opacity="1" stroke-linecap="round" stroke-linejoin="round"/><circle cx="674.1963413318106" cy="158.09434646507958" r="6" fill="#658a4e"/><path d="M634.2240376995053,121.66069486250916 L679.0897313345828,123.69413016078134" fill="none" stroke="#8c7d52" stroke-width="2" opacity="1" stroke-linecap="round" stroke-linejoin="round"/><circle cx="679.0897313345828" cy="123.69413016078134" r="6" fill="#658a4e"/><path d="M675.6545873135427,132.1245727822813 L643.315725523592,101.39267405943741" fill="none" stroke="#8c7d52" stroke-width="2" opacity="1" stroke-linecap="round" stroke-linejoin="round"/><circle cx="643.315725523592" cy="101.39267405943741" r="6" fill="#658a4e"/><path d="M674.1963413318106,158.09434646507958 L695.4927530897139,136.63700415802725" fill="none" stroke="#8c7d52" stroke-width="2" opacity="1" stroke-linecap="round" stroke-linejoin="round"/><circle cx="695.4927530897139" cy="136.63700415802725" r="6" fill="#658a4e"/><path d="M674.1963413318106,158.09434646507958 L682.9364042034262,197.73459305234482" fill="none" stroke="#8c7d52" stroke-width="2" opacity="1" stroke-linecap="round" stroke-linejoin="round"/><circle cx="682.9364042034262" cy="197.73459305234482" r="6" fill="#658a4e"/><path d="M682.9364042034262,197.73459305234482 L682.4470594388408,216.48761777360502" fill="none" stroke="#8c7d52" stroke-width="2" opacity="1" stroke-linecap="round" stroke-linejoin="round"/><circle cx="682.4470594388408" cy="216.48761777360502" r="6" fill="#658a4e"/><path d="M679.0897313345828,123.69413016078134 L697.4384843320145,134.39061295289477" fill="none" stroke="#8c7d52" stroke-width="2" opacity="1" stroke-linecap="round" stroke-linejoin="round"/><circle cx="697.4384843320145" cy="134.39061295289477" r="6" fill="#658a4e"/><path d="M682.9364042034262,197.73459305234482 L663.1499950627154,164.56715592850182" fill="none" stroke="#8c7d52" stroke-width="2" opacity="1" stroke-linecap="round" stroke-linejoin="round"/><circle cx="663.1499950627154" cy="164.56715592850182" r="6" fill="#658a4e"/><path d="M679.0897313345828,123.69413016078134 L688.7135516153127,101.80049070244905" fill="none" stroke="#8c7d52" stroke-width="2" opacity="1" stroke-linecap="round" stroke-linejoin="round"/><circle cx="688.7135516153127" cy="101.80049070244905" r="6" fill="#658a4e"/><path d="M682.9364042034262,197.73459305234482 L669.2200838827872,211.90566450423262" fill="none" stroke="#8c7d52" stroke-width="2" opacity="1" stroke-linecap="round" stroke-linejoin="round"/><circle cx="669.2200838827872" cy="211.90566450423262" r="6" fill="#658a4e"/><path d="M697.4384843320145,134.39061295289477 L717.8760876902883,151.1153425460763" fill="none" stroke="#8c7d52" stroke-width="2" opacity="1" stroke-linecap="round" stroke-linejoin="round"/><circle cx="717.8760876902883" cy="151.1153425460763" r="6" fill="#658a4e"/><path d="M669.2200838827872,211.90566450423262 L668.7669179663462,231.5755198776814" fill="none" stroke="#8c7d52" stroke-width="2" opacity="1" stroke-linecap="round" stroke-linejoin="round"/><circle cx="668.7669179663462" cy="231.5755198776814" r="6" fill="#658a4e"/><path d="M695.4927530897139,136.63700415802725 L729.6035465951273,143.77256984059395" fill="none" stroke="#8c7d52" stroke-width="2" opacity="1" stroke-linecap="round" stroke-linejoin="round"/><circle cx="729.6035465951273" cy="143.77256984059395" r="6" fill="#658a4e"/><path d="M682.9364042034262,197.73459305234482 L689.7746560922683,238.9397940930646" fill="none" stroke="#8c7d52" stroke-width="2" opacity="1" stroke-linecap="round" stroke-linejoin="round"/><circle cx="689.7746560922683" cy="238.9397940930646" r="6" fill="#658a4e"/><path d="M729.6035465951273,143.77256984059395 L741.8122098927197,124.72612343493684" fill="none" stroke="#8c7d52" stroke-width="2" opacity="1" stroke-linecap="round" stroke-linejoin="round"/><circle cx="741.8122098927197" cy="124.72612343493684" r="6" fill="#658a4e"/><path d="M688.7135516153127,101.80049070244905 L698.4989985548817,80.23609541016612" fill="none" stroke="#8c7d52" stroke-width="2" opacity="1" stroke-linecap="round" stroke-linejoin="round"/><circle cx="698.4989985548817" cy="80.23609541016612" r="6" fill="#658a4e"/><path d="M668.7669179663462,231.5755198776814 L704.3895327142136,208.98502017138676" fill="none" stroke="#8c7d52" stroke-width="2" opacity="1" stroke-linecap="round" stroke-linejoin="round"/><circle cx="704.3895327142136" cy="208.98502017138676" r="6" fill="#658a4e"/><path d="M643.315725523592,101.39267405943741 L653.7541969499165,78.37521119881332" fill="none" stroke="#8c7d52" stroke-width="2" opacity="1" stroke-linecap="round" stroke-linejoin="round"/><circle cx="653.7541969499165" cy="78.37521119881332" r="6" fill="#658a4e"/><path d="M675.6545873135427,132.1245727822813 L699.0708208716966,123.48457658247564" fill="none" stroke="#8c7d52" stroke-width="2" opacity="1" stroke-linecap="round" stroke-linejoin="round"/><circle cx="699.0708208716966" cy="123.48457658247564" r="6" fill="#658a4e"/><circle cx="890" cy="320" r="140" fill="#dce6c8"/><path d="M890,320 L881.206614627743,344.8199667350407" fill="none" stroke="#8c7d52" stroke-width="2" opacity="1" stroke-linecap="round" stroke-linejoin="round"/><circle cx="881.206614627743" cy="344.8199667350407" r="6" fill="#658a4e"/><path d="M890,320 L916.5465783205216,335.7979432314975" fill="none" stroke="#8c7d52" stroke-width="2" opacity="1" stroke-linecap="round" stroke-linejoin="round"/><circle cx="916.5465783205216" cy="335.7979432314975" r="6" fill="#658a4e"/><path d="M890,320 L858.1125926180132,317.7362423329646" fill="none" stroke="#8c7d52" stroke-width="2" opacity="1" stroke-linecap="round" stroke-linejoin="round"/><circle cx="858.1125926180132" cy="317.7362423329646" r="6" fill="#658a4e"/><path d="M881.206614627743,344.8199667350407 L879.7460094303414,308.4970885060652" fill="none" stroke="#8c7d52" stroke-width="2" opacity="1" stroke-linecap="round" stroke-linejoin="round"/><circle cx="879.7460094303414" cy="308.4970885060652" r="6" fill="#658a4e"/><path d="M879.7460094303414,308.4970885060652 L892.2457420963782,291.03110713507493" fill="none" stroke="#8c7d52" stroke-width="2" opacity="1" stroke-linecap="round" stroke-linejoin="round"/><circle cx="892.2457420963782" cy="291.03110713507493" r="6" fill="#658a4e"/><path d="M879.7460094303414,308.4970885060652 L884.2071156214489,272.46083602105284" fill="none" stroke="#8c7d52" stroke-width="2" opacity="1" stroke-linecap="round" stroke-linejoin="round"/><circle cx="884.2071156214489" cy="272.46083602105284" r="6" fill="#658a4e"/><path d="M892.2457420963782,291.03110713507493 L857.1509505515724,277.29840806333624" fill="none" stroke="#8c7d52" stroke-width="2" opacity="1" stroke-linecap="round" stroke-linejoin="round"/><circle cx="857.1509505515724" cy="277.29840806333624" r="6" fill="#658a4e"/><path d="M890,320 L874.3805136567112,293.70030799422636" fill="none" stroke="#8c7d52" stroke-width="2" opacity="1" stroke-linecap="round" stroke-linejoin="round"/><circle cx="874.3805136567112" cy="293.70030799422636" r="6" fill="#658a4e"/><path d="M916.5465783205216,335.7979432314975 L873.1942873155023,328.4469588946788" fill="none" stroke="#8c7d52" stroke-width="2" opacity="1" stroke-linecap="round" stroke-linejoin="round"/><circle cx="873.1942873155023" cy="328.4469588946788" r="6" fill="#658a4e"/><path d="M916.5465783205216,335.7979432314975 L944.2110792796715,311.8430103952936" fill="none" stroke="#8c7d52" stroke-width="2" opacity="1" stroke-linecap="round" stroke-linejoin="round"/><circle cx="944.2110792796715" cy="311.8430103952936" r="6" fill="#658a4e"/><path d="M884.2071156214489,272.46083602105284 L893.2566890121522,256.1897230578789" fill="none" stroke="#8c7d52" stroke-width="2" opacity="1" stroke-linecap="round" stroke-linejoin="round"/><circle cx="893.2566890121522" cy="256.1897230578789" r="6" fill="#658a4e"/><path d="M944.2110792796715,311.8430103952936 L977.5775188034842,309.5690187870572" fill="none" stroke="#8c7d52" stroke-width="2" opacity="1" stroke-linecap="round" stroke-linejoin="round"/><circle cx="977.5775188034842" cy="309.5690187870572" r="6" fill="#658a4e"/><path d="M890,320 L879.9973123946045,289.1583442759029" fill="none" stroke="#8c7d52" stroke-width="2" opacity="1" stroke-linecap="round" stroke-linejoin="round"/><circle cx="879.9973123946045" cy="289.1583442759029" r="6" fill="#658a4e"/><path d="M944.2110792796715,311.8430103952936 L950.6376360369837,356.1014130332286" fill="none" stroke="#8c7d52" stroke-width="2" opacity="1" stroke-linecap="round" stroke-linejoin="round"/><circle cx="950.6376360369837" cy="356.1014130332286" r="6" fill="#658a4e"/><path d="M858.1125926180132,317.7362423329646 L881.7777813290633,304.00128440196414" fill="none" stroke="#8c7d52" stroke-width="2" opacity="1" stroke-linecap="round" stroke-linejoin="round"/><circle cx="881.7777813290633" cy="304.00128440196414" r="6" fill="#658a4e"/><path d="M890,320 L927.7504864654755,296.3792167944674" fill="none" stroke="#8c7d52" stroke-width="2" opacity="1" stroke-linecap="round" stroke-linejoin="round"/><circle cx="927.7504864654755" cy="296.3792167944674" r="6" fill="#658a4e"/><path d="M879.9973123946045,289.1583442759029 L891.4848587059668,316.0727177162893" fill="none" stroke="#8c7d52" stroke-width="2" opacity="1" stroke-linecap="round" stroke-linejoin="round"/><circle cx="891.4848587059668" cy="316.0727177162893" r="6" fill="#658a4e"/><path d="M927.7504864654755,296.3792167944674 L909.7957294956603,310.6844339789096" fill="none" stroke="#8c7d52" stroke-width="2" opacity="1" stroke-linecap="round" stroke-linejoin="round"/><circle cx="909.7957294956603" cy="310.6844339789096" r="6" fill="#658a4e"/><path d="M884.2071156214489,272.46083602105284 L885.580183096889,313.9818070019591" fill="none" stroke="#8c7d52" stroke-width="2" opacity="1" stroke-linecap="round" stroke-linejoin="round"/><circle cx="885.580183096889" cy="313.9818070019591" r="6" fill="#658a4e"/><path d="M885.580183096889,313.9818070019591 L916.2697706315504,280.62957636095916" fill="none" stroke="#8c7d52" stroke-width="2" opacity="1" stroke-linecap="round" stroke-linejoin="round"/><circle cx="916.2697706315504" cy="280.62957636095916" r="6" fill="#658a4e"/><path d="M893.2566890121522,256.1897230578789 L930.9241622606154,253.277136481761" fill="none" stroke="#8c7d52" stroke-width="2" opacity="1" stroke-linecap="round" stroke-linejoin="round"/><circle cx="930.9241622606154" cy="253.277136481761" r="6" fill="#658a4e"/><path d="M879.7460094303414,308.4970885060652 L867.697338929378,322.17137401946405" fill="none" stroke="#8c7d52" stroke-width="2" opacity="1" stroke-linecap="round" stroke-linejoin="round"/><circle cx="867.697338929378" cy="322.17137401946405" r="6" fill="#658a4e"/><circle cx="1080" cy="180" r="70" fill="#dce6c8"/><path d="M1080,180 L1071.6314601147576,200.4463706987722" fill="none" stroke="#8c7d52" stroke-width="2" opacity="1" stroke-linecap="round" stroke-linejoin="round"/><circle cx="1071.6314601147576" cy="200.4463706987722" r="6" fill="#658a4e"/><path d="M1080,180 L1050.9019870657037,167.5407821765189" fill="none" stroke="#8c7d52" stroke-width="2" opacity="1" stroke-linecap="round" stroke-linejoin="round"/><circle cx="1050.9019870657037" cy="167.5407821765189" r="6" fill="#658a4e"/><path d="M1080,180 L1101.8314337374309,163.2449638823399" fill="none" stroke="#8c7d52" stroke-width="2" opacity="1" stroke-linecap="round" stroke-linejoin="round"/><circle cx="1101.8314337374309" cy="163.2449638823399" r="6" fill="#658a4e"/><path d="M1050.9019870657037,167.5407821765189 L1030.6939331326143,147.4552834872744" fill="none" stroke="#8c7d52" stroke-width="2" opacity="1" stroke-linecap="round" stroke-linejoin="round"/><circle cx="1030.6939331326143" cy="147.4552834872744" r="6" fill="#658a4e"/><path d="M1101.8314337374309,163.2449638823399 L1057.8283122862042,160.59016701623105" fill="none" stroke="#8c7d52" stroke-width="2" opacity="1" stroke-linecap="round" stroke-linejoin="round"/><circle cx="1057.8283122862042" cy="160.59016701623105" r="6" fill="#658a4e"/><path d="M1101.8314337374309,163.2449638823399 L1092.9214701632939,132.37250387205364" fill="none" stroke="#8c7d52" stroke-width="2" opacity="1" stroke-linecap="round" stroke-linejoin="round"/><circle cx="1092.9214701632939" cy="132.37250387205364" r="6" fill="#658a4e"/><path d="M1101.8314337374309,163.2449638823399 L1097.860903300308,204.66809569638815" fill="none" stroke="#8c7d52" stroke-width="2" opacity="1" stroke-linecap="round" stroke-linejoin="round"/><circle cx="1097.860903300308" cy="204.66809569638815" r="6" fill="#658a4e"/><path d="M1092.9214701632939,132.37250387205364 L1066.0795089841984,139.68353609543277" fill="none" stroke="#8c7d52" stroke-width="2" opacity="1" stroke-linecap="round" stroke-linejoin="round"/><circle cx="1066.0795089841984" cy="139.68353609543277" r="6" fill="#658a4e"/><path d="M1071.6314601147576,200.4463706987722 L1052.6502704135125,208.47835192383138" fill="none" stroke="#8c7d52" stroke-width="2" opacity="1" stroke-linecap="round" stroke-linejoin="round"/><circle cx="1052.6502704135125" cy="208.47835192383138" r="6" fill="#658a4e"/><path d="M1092.9214701632939,132.37250387205364 L1107.5423000417495,120.82929338264974" fill="none" stroke="#8c7d52" stroke-width="2" opacity="1" stroke-linecap="round" stroke-linejoin="round"/><circle cx="1107.5423000417495" cy="120.82929338264974" r="6" fill="#658a4e"/><path d="M1092.9214701632939,132.37250387205364 L1092.9993167302302,174.20476942659508" fill="none" stroke="#8c7d52" stroke-width="2" opacity="1" stroke-linecap="round" stroke-linejoin="round"/><circle cx="1092.9993167302302" cy="174.20476942659508" r="6" fill="#658a4e"/><path d="M1097.860903300308,204.66809569638815 L1110.2481650129039,227.63662761236233" fill="none" stroke="#8c7d52" stroke-width="2" opacity="1" stroke-linecap="round" stroke-linejoin="round"/><circle cx="1110.2481650129039" cy="227.63662761236233" r="6" fill="#658a4e"/><path d="M1107.5423000417495,120.82929338264974 L1093.0761629145181,159.5483698634898" fill="none" stroke="#8c7d52" stroke-width="2" opacity="1" stroke-linecap="round" stroke-linejoin="round"/><circle cx="1093.0761629145181" cy="159.5483698634898" r="6" fill="#658a4e"/><path d="M1097.860903300308,204.66809569638815 L1085.7564428386977,237.04195924567733" fill="none" stroke="#8c7d52" stroke-width="2" opacity="1" stroke-linecap="round" stroke-linejoin="round"/><circle cx="1085.7564428386977" cy="237.04195924567733" r="6" fill="#658a4e"/><path d="M1097.860903300308,204.66809569638815 L1128.960974303541,181.2859642642942" fill="none" stroke="#8c7d52" stroke-width="2" opacity="1" stroke-linecap="round" stroke-linejoin="round"/><circle cx="1128.960974303541" cy="181.2859642642942" r="6" fill="#658a4e"/><path d="M1052.6502704135125,208.47835192383138 L1069.4688383322896,216.95311697332295" fill="none" stroke="#8c7d52" stroke-width="2" opacity="1" stroke-linecap="round" stroke-linejoin="round"/><circle cx="1069.4688383322896" cy="216.95311697332295" r="6" fill="#658a4e"/><path d="M1128.960974303541,181.2859642642942 L1109.1102286267778,146.98614873472408" fill="none" stroke="#8c7d52" stroke-width="2" opacity="1" stroke-linecap="round" stroke-linejoin="round"/><circle cx="1109.1102286267778" cy="146.98614873472408" r="6" fill="#658a4e"/><path d="M1080,180 L1092.3573948203507,141.27129087135955" fill="none" stroke="#8c7d52" stroke-width="2" opacity="1" stroke-linecap="round" stroke-linejoin="round"/><circle cx="1092.3573948203507" cy="141.27129087135955" r="6" fill="#658a4e"/><path d="M1050.9019870657037,167.5407821765189 L1023.426305897267,152.576208006868" fill="none" stroke="#8c7d52" stroke-width="2" opacity="1" stroke-linecap="round" stroke-linejoin="round"/><circle cx="1023.426305897267" cy="152.576208006868" r="6" fill="#658a4e"/><path d="M1066.0795089841984,139.68353609543277 L1052.2941574349136,151.5712352792006" fill="none" stroke="#8c7d52" stroke-width="2" opacity="1" stroke-linecap="round" stroke-linejoin="round"/><circle cx="1052.2941574349136" cy="151.5712352792006" r="6" fill="#658a4e"/><path d="M1109.1102286267778,146.98614873472408 L1144.7303965535507,157.4324237318264" fill="none" stroke="#8c7d52" stroke-width="2" opacity="1" stroke-linecap="round" stroke-linejoin="round"/><circle cx="1144.7303965535507" cy="157.4324237318264" r="6" fill="#658a4e"/><path d="M300 70 L300 445" fill="none" stroke="#a7adb0" stroke-width="1" opacity="0.55" stroke-linecap="round" stroke-linejoin="round"/><path d="M600 70 L600 445" fill="none" stroke="#a7adb0" stroke-width="1" opacity="0.55" stroke-linecap="round" stroke-linejoin="round"/><path d="M900 70 L900 445" fill="none" stroke="#a7adb0" stroke-width="1" opacity="0.55" stroke-linecap="round" stroke-linejoin="round"/><text x="35" y="486" font-size="22" fill="#22372d" font-weight="normal">Brown edges: connected parent/daughter growth. Green dots: rooted shoots.</text><text x="35" y="522" font-size="22" fill="#22372d" font-weight="normal">Faint boundaries: packaging only. Never use them to align the plants into rows.</text></svg>