<svg xmlns="http://www.w3.org/2000/svg" viewBox="0 0 1000 230" role="img"><rect width="1000" height="230" rx="12" fill="#edf3f1"/><path d="M45 120 Q75 60 128 96 L162 100 L170 117 L136 129 Q95 170 45 120Z" fill="#b27a62" stroke="#643f36" stroke-width="2"/><path d="M132 114 L168 116" stroke="#342e2c" stroke-width="4"/><circle cx="126" cy="104" r="6" fill="#203338"/><text x="111" y="200" text-anchor="middle" font-family="sans-serif" font-size="21" fill="#153e46">Aim</text><ellipse cx="196" cy="122" rx="12" ry="7" fill="#db982f"/><path d="M243 120 Q273 60 326 96 L360 87.0 L368 117 L334 144.6 Q293 170 243 120Z" fill="#b27a62" stroke="#643f36" stroke-width="2"/><path d="M330 114 L371.85 128.35" stroke="#342e2c" stroke-width="4"/><circle cx="324" cy="104" r="6" fill="#203338"/><text x="309" y="200" text-anchor="middle" font-family="sans-serif" font-size="21" fill="#153e46">Expand</text><ellipse cx="380" cy="122" rx="12" ry="7" fill="#db982f"/><path d="M441 120 Q471 60 524 96 L558 80 L566 117 L532 153 Q491 170 441 120Z" fill="#b27a62" stroke="#643f36" stroke-width="2"/><path d="M528 114 L573 135" stroke="#342e2c" stroke-width="4"/><circle cx="522" cy="104" r="6" fill="#203338"/><text x="507" y="200" text-anchor="middle" font-family="sans-serif" font-size="21" fill="#153e46">Capture</text><ellipse cx="564" cy="122" rx="12" ry="7" fill="#db982f"/><path d="M639 120 Q669 60 722 96 L756 93.0 L764 117 L730 137.4 Q689 170 639 120Z" fill="#b27a62" stroke="#643f36" stroke-width="2"/><path d="M726 114 L765.15 122.65" stroke="#342e2c" stroke-width="4"/><circle cx="720" cy="104" r="6" fill="#203338"/><text x="705" y="200" text-anchor="middle" font-family="sans-serif" font-size="21" fill="#153e46">Close</text><path d="M837 120 Q867 60 920 96 L954 100 L962 117 L928 129 Q887 170 837 120Z" fill="#b27a62" stroke="#643f36" stroke-width="2"/><path d="M924 114 L960 116" stroke="#342e2c" stroke-width="4"/><circle cx="918" cy="104" r="6" fill="#203338"/><text x="903" y="200" text-anchor="middle" font-family="sans-serif" font-size="21" fill="#153e46">Recover</text></svg>