<svg xmlns="http://www.w3.org/2000/svg" viewBox="0 0 1280 760" role="img">
<defs><linearGradient id="water" x2="0" y2="1"><stop stop-color="#15495c"/><stop offset="1" stop-color="#082735"/></linearGradient>
<linearGradient id="blue"><stop stop-color="#36c5ff"/><stop offset=".55" stop-color="#126bdf"/><stop offset="1" stop-color="#143688"/></linearGradient></defs>
<style>text{font-family:Arial,sans-serif;fill:#e7f4fa} .sub{fill:#9ab4c2;font-size:18px} .label{font-size:22px;font-weight:bold} .line{stroke:#75a4b6;stroke-width:2;fill:none}</style>
<rect width="1280" height="760" fill="#0e1726"/><text x="60" y="65" font-size="34" font-weight="bold">From selection to a living colony</text>
<text x="60" y="98" class="sub">Existing bundle menu + independent content + shared shrimp meshes</text><rect x="60" y="145" width="330" height="96" rx="12" fill="#18334a" stroke="#46718b"/><text x="80" y="181" class="label">Aquarium menu</text><text x="80" y="212" class="sub">shell-menu.fth + MENU</text><rect x="460" y="132" width="355" height="96" rx="12" fill="#18334a" stroke="#46718b"/><text x="480" y="168" class="label">0 · Clownfish Reef</text><text x="480" y="199" class="sub">Existing standalone level</text><rect x="460" y="260" width="355" height="96" rx="12" fill="#173e55" stroke="#46718b"/><text x="480" y="296" class="label">1 · Blue Shrimp</text><text x="480" y="327" class="sub">New standalone level</text><path d="M390 182 H425 V175 H460 M425 182 V305 H460" class="line"/><rect x="880" y="260" width="340" height="96" rx="12" fill="#18334a" stroke="#46718b"/><text x="900" y="296" class="label">Director tick</text><text x="900" y="327" class="sub">Colony decisions + rig poses</text><path d="M815 305 H880 M1050 356 V407" class="line"/><rect x="850" y="407" width="370" height="110" rx="12" fill="#18334a" stroke="#46718b"/><text x="870" y="443" class="label">Graze → Crawl → Swim</text><text x="870" y="474" class="sub">Settle to graze · dart → escape</text><path d="M460 340 H425 V383 H70 V250" class="line"/><text x="80" y="372" class="sub">Backspace / held Back returns to menu</text><text x="60" y="457" class="label">Proposed compact rig</text><g transform="translate(285 559) scale(3.1 3.1)">
<ellipse cx="0" cy="12" rx="32" ry="5" fill="#00121d" opacity=".35"/>
<path d="M-29 0 Q-10 -19 12 -12 Q25 -10 28 0 L20 5 Q-4 0 -22 8 Z" fill="url(#blue)" stroke="#53c6ff" stroke-width="1"/>
<path d="M-29 0 L-42 -4 L-38 8 L-26 8" fill="#227bec"/>
<path d="M-19 -8 L-15 3 M-9 -12 L-5 1 M2 -14 L6 1" stroke="#91dfff" opacity=".55" fill="none"/>
<path d="M-9 3 L-13 13 M0 3 L-2 14 M9 3 L13 14 M18 3 L24 12" stroke="#4996de" stroke-width="2"/>
<circle cx="24" cy="-8" r="2.8" fill="#051222"/>
<path d="M27 -6 Q45 -29 63 -24 M27 -3 Q49 -15 68 -8" fill="none" stroke="#77cfff" stroke-width="1.4"/>
</g><path d="M212 544 L150 490 M306 524 L430 484 M318 594 L454 640 M427 511 L584 566" class="line"/><text x="65" y="482" class="sub">Abdomen / tail</text><text x="422" y="474" class="sub">Body / head</text><text x="451" y="669" class="sub">Paired leg groups</text><text x="589" y="574" class="sub">Antennae</text><text x="850" y="568" class="sub">24 shrimp share mesh assets.</text><text x="850" y="601" class="sub">Each has its own pose and phase.</text><text x="850" y="634" class="sub">Player: one invisible collision hull.</text><text x="850" y="667" class="sub">23 residents: visual actors only.</text><text x="60" y="729" font-size="15">DESIGN DIAGRAM · Final part count and device budget are measured in the rig spike</text></svg>