<svg xmlns="http://www.w3.org/2000/svg" viewBox="0 0 1000 620" role="img" aria-label="selector concept"><style>text{font-family:system-ui,sans-serif;fill:#e9f2f4}.title{font-size:30px;font-weight:650}.sub{font-size:15px;fill:#acc2ce}.note{font-size:17px;fill:#b6cbd6}</style><rect width="1000" height="620" rx="18" fill="#101e2c"/><text x="80" y="73" class="title">WF Aquarium</text><text x="80" y="111" class="note">Choose a tank</text><rect x="80" y="145" width="840" height="46" rx="7" fill="#1a3042" stroke="#344d60"/><text x="110" y="176" font-size="23">Clownfish & Tiger Barbs</text><text x="875" y="175" class="sub">0</text><rect x="80" y="199" width="840" height="46" rx="7" fill="#1a3042" stroke="#344d60"/><text x="110" y="230" font-size="23">Blue Shrimp</text><text x="875" y="229" class="sub">1</text><rect x="80" y="253" width="840" height="46" rx="7" fill="#285e75" stroke="#9bdfdf"/><text x="110" y="284" font-size="23">▸ Calm Betta</text><text x="875" y="283" class="sub">2</text><rect x="80" y="307" width="840" height="46" rx="7" fill="#1a3042" stroke="#344d60"/><text x="110" y="338" font-size="23">Jellyfish</text><text x="875" y="337" class="sub">3</text><rect x="80" y="361" width="840" height="46" rx="7" fill="#1a3042" stroke="#344d60"/><text x="110" y="392" font-size="23">Lionfish</text><text x="875" y="391" class="sub">4</text><rect x="80" y="415" width="840" height="46" rx="7" fill="#1a3042" stroke="#344d60"/><text x="110" y="446" font-size="23">Planted Tank</text><text x="875" y="445" class="sub">5</text><text x="80" y="514" class="sub">↑ / ↓ Choose · OK / A Open · Existing SMB selector behavior</text><text x="80" y="552" class="sub">Planted Tank includes one sea urchin; no fish.</text><text x="80" y="588" class="sub">SCHEMATIC CONCEPT · confirm six-row fit in the actual menu drawer.</text></svg>