#Produced by Art of Illusion 2.8.1, Sun Apr 24 21:25:50 CEST 2011
s 1
g Table
v -0.04078 0.51452 -0
v -0.04078 0.51452 -0
v -0.04078 0.51452 -0
v -0.04078 0.51452 -0
v -0.04078 0.51452 -0
v -0.04078 0.51452 -0
v -0.04078 0.51452 -0
v -0.04078 0.51452 -0
v -0.04078 0.51452 -0
v -0.3644 0.51452 -0.27155
v -0.11414 0.51452 -0.41603
v 0.17044 0.51452 -0.36585
v 0.35619 0.51452 -0.14449
v 0.35619 0.51452 0.14449
v 0.17044 0.51452 0.36585
v -0.11414 0.51452 0.41603
v -0.3644 0.51452 0.27155
v -0.46323 0.51452 -0
v -0.36258 0.46633 -0.27002
v -0.11373 0.46633 -0.41369
v 0.16925 0.46633 -0.36379
v 0.35395 0.46633 -0.14367
v 0.35395 0.46633 0.14367
v 0.16925 0.46633 0.36379
v -0.11373 0.46633 0.41369
v -0.36258 0.46633 0.27002
v -0.46085 0.46633 -0
v -0.34252 0.46633 -0.25319
v -0.10918 0.46633 -0.38791
v 0.15616 0.46633 -0.34112
v 0.32935 0.46633 -0.13472
v 0.32935 0.46633 0.13472
v 0.15616 0.46633 0.34112
v -0.10918 0.46633 0.38791
v -0.34316 0.46619 0.25257
v -0.43531 0.46619 -0.00062
v -0.34434 0.3979 -0.25472
v -0.1096 0.3979 -0.39025
v 0.15735 0.3979 -0.34318
v 0.33159 0.3979 -0.13553
v 0.33159 0.3979 0.13553
v 0.15735 0.3979 0.34318
v -0.1096 0.3979 0.39025
v -0.34498 0.39776 0.2541
v -0.43769 0.39776 -0.00062
v -0.33341 0.3979 -0.24554
v -0.10712 0.3979 -0.37619
v 0.15021 0.3979 -0.33081
v 0.31817 0.3979 -0.13065
v 0.31817 0.3979 0.13065
v 0.15021 0.3979 0.33081
v -0.10712 0.3979 0.37619
v -0.33341 0.3979 0.24554
v -0.42277 0.3979 -0
v -0.33523 0.46633 -0.24707
v -0.10753 0.46633 -0.37853
v 0.15404 0.46633 -0.33237
v 0.32041 0.46633 -0.12877
v 0.32041 0.46633 0.13146
v 0.1514 0.46633 0.33287
v -0.10753 0.46633 0.37853
v -0.33523 0.46633 0.24707
v -0.42515 0.46633 -0
v -0.07634 0.46633 -0.02983
v -0.04884 0.46633 -0.0457
v -0.01874 0.46633 -0.04192
v 0.00135 0.46633 -0.01734
v 0.00283 0.46633 0.01587
v -0.01758 0.46633 0.04019
v -0.04884 0.46633 0.0457
v -0.07634 0.46633 0.02983
v -0.08719 0.46633 -0
v -0.08181 -0.31848 -0.03442
v -0.05008 -0.31848 -0.05274
v -0.01401 -0.31848 -0.04638
v 0.00954 -0.31848 -0.01832
v 0.00954 -0.31848 0.01832
v -0.01401 -0.31848 0.04638
v -0.05008 -0.31848 0.05274
v -0.08181 -0.31848 0.03442
v -0.09433 -0.31848 -0
v -0.11462 -0.3399 -0.06196
v -0.05752 -0.3399 -0.09493
v 0.00741 -0.3399 -0.08348
v 0.04979 -0.3399 -0.03297
v 0.04979 -0.3399 0.03297
v 0.00741 -0.3399 0.08348
v -0.05752 -0.3399 0.09493
v -0.11462 -0.3399 0.06196
v -0.13717 -0.3399 -0
v -0.12009 -0.42439 -0.06655
v -0.05876 -0.42439 -0.10196
v 0.01098 -0.42439 -0.08966
v 0.0565 -0.42439 -0.03541
v 0.0565 -0.42439 0.03541
v 0.01098 -0.42439 0.08966
v -0.05876 -0.42439 0.10196
v -0.12009 -0.42439 0.06655
v -0.14431 -0.42439 -0
v -0.04078 -0.42439 -0
v -0.04078 -0.42439 -0
v -0.04078 -0.42439 -0
v -0.04078 -0.42439 -0
v -0.04078 -0.42439 -0
v -0.04078 -0.42439 -0
v -0.04078 -0.42439 -0
v -0.04078 -0.42439 -0
v -0.04078 -0.42439 -0
v -0.05607 -0.48536 -0.08666
v 0.00322 -0.48536 -0.07621
v 0.04191 -0.48536 -0.0301
v 0.04191 -0.48536 0.0301
v 0.00322 -0.48536 0.07621
v -0.05607 -0.48536 0.08666
v -0.1082 -0.48536 0.05657
v -0.12878 -0.48536 -0
v -0.1082 -0.48536 -0.05657
v -0.04078 -0.48536 -0
v -0.04078 -0.48536 -0
v -0.04078 -0.48536 -0
v -0.04078 -0.48536 -0
v -0.04078 -0.48536 -0
v -0.04078 -0.48536 -0
v -0.04078 -0.48536 -0
v -0.04078 -0.48536 -0
v -0.04078 -0.48536 -0
v 0.13766 -0.36904 0.0227
v 0.16218 -0.4099 0.0227
v 0.21394 -0.4544 0.0227
v 0.26933 -0.47165 0.0227
v 0.27932 -0.48527 0.0227
v 0.18216 -0.45894 0.0227
v 0.11678 -0.40718 0.0227
v 0.13766 -0.36904 -0.0227
v 0.16218 -0.4099 -0.0227
v 0.21394 -0.4544 -0.0227
v 0.26933 -0.47165 -0.0227
v 0.27932 -0.48527 -0.0227
v 0.18216 -0.45894 -0.0227
v 0.11678 -0.40718 -0.0227
v -0.14967 -0.36904 0.14319
v -0.16193 -0.4099 0.16442
v -0.18781 -0.4544 0.20925
v -0.2155 -0.47165 0.25722
v -0.22049 -0.48527 0.26587
v -0.17191 -0.45894 0.18172
v -0.13923 -0.40718 0.1251
v -0.11035 -0.36904 0.16589
v -0.12261 -0.4099 0.18712
v -0.14849 -0.4544 0.23195
v -0.17618 -0.47165 0.27992
v -0.18118 -0.48527 0.28857
v -0.1326 -0.45894 0.20442
v -0.09991 -0.40718 0.1478
v -0.11035 -0.36904 -0.16589
v -0.12261 -0.4099 -0.18712
v -0.14849 -0.4544 -0.23195
v -0.17618 -0.47165 -0.27992
v -0.18118 -0.48527 -0.28857
v -0.1326 -0.45894 -0.20442
v -0.09991 -0.40718 -0.1478
v -0.14967 -0.36904 -0.14319
v -0.16193 -0.4099 -0.16442
v -0.18781 -0.4544 -0.20925
v -0.2155 -0.47165 -0.25722
v -0.22049 -0.48527 -0.26587
v -0.17191 -0.45894 -0.18172
v -0.13923 -0.40718 -0.1251
f 2 11 1
f 10 1 11
f 12 11 3
f 3 11 2
f 4 13 3
f 12 3 13
f 4 5 13
f 5 14 13
f 6 15 5
f 14 5 15
f 7 16 6
f 15 6 16
f 8 17 7
f 16 7 17
f 9 18 8
f 17 8 18
f 1 10 9
f 18 9 10
f 10 11 20 19
f 12 21 20 11
f 12 13 22 21
f 14 23 22 13
f 15 24 23 14
f 15 16 25 24
f 17 26 25 16
f 18 27 26 17
f 10 19 27 18
f 20 29 28 19
f 21 30 29 20
f 22 31 30 21
f 23 32 31 22
f 24 33 32 23
f 25 34 33 24
f 26 35 34 25
f 27 36 35 26
f 19 28 36 27
f 29 38 37 28
f 29 30 39 38
f 30 31 40 39
f 32 41 40 31
f 33 42 41 32
f 33 34 43 42
f 35 44 43 34
f 35 36 45 44
f 36 28 37 45
f 38 47 46 37
f 39 48 47 38
f 40 49 48 39
f 41 50 49 40
f 42 51 50 41
f 43 52 51 42
f 44 53 52 43
f 45 54 53 44
f 37 46 54 45
f 46 47 56 55
f 48 57 56 47
f 48 49 58 57
f 50 59 58 49
f 51 60 59 50
f 52 61 60 51
f 52 53 62 61
f 54 63 62 53
f 54 46 55 63
f 56 65 64 55
f 57 66 65 56
f 58 67 66 57
f 59 68 67 58
f 60 69 68 59
f 61 70 69 60
f 62 71 70 61
f 63 72 71 62
f 55 64 72 63
f 64 65 74 73
f 66 75 74 65
f 66 67 76 75
f 68 77 76 67
f 69 78 77 68
f 70 79 78 69
f 70 71 80 79
f 72 81 80 71
f 64 73 81 72
f 74 83 82 73
f 74 75 84 83
f 76 85 84 75
f 77 86 85 76
f 77 78 87 86
f 78 79 88 87
f 80 89 88 79
f 81 90 89 80
f 73 82 90 81
f 84 93 92 83
f 84 85 94 93
f 87 96 95 86
f 88 97 96 87
f 90 99 98 89
f 90 82 91 99
f 126 117 125
f 109 125 117
f 109 110 125
f 125 110 124
f 124 110 123
f 111 123 110
f 111 112 123
f 123 112 122
f 122 112 121
f 113 121 112
f 121 113 120
f 114 120 113
f 120 114 119
f 115 119 114
f 119 115 118
f 116 118 115
f 118 116 126
f 117 126 116
f 109 117 91 92
f 110 109 92 93
f 111 110 93 94
f 112 111 94 95
f 113 112 95 96
f 114 113 96 97
f 115 114 97 98
f 116 115 98 99
f 117 116 99 91
f 118 126 108
f 100 108 126
f 119 118 107
f 108 107 118
f 120 119 106
f 107 106 119
f 121 120 105
f 106 105 120
f 122 121 104
f 105 104 121
f 123 122 103
f 104 103 122
f 124 123 102
f 103 102 123
f 125 124 101
f 102 101 124
f 126 125 100
f 101 100 125
f 132 131 130 129
f 139 136 137 138
f 129 128 133 132
f 136 139 140 135
f 133 128 127
f 135 140 134
f 138 131 132 139
f 136 129 130 137
f 137 130 131 138
f 135 128 129 136
f 139 132 133 140
f 134 127 128 135
f 146 145 144 143
f 153 150 151 152
f 143 142 147 146
f 150 153 154 149
f 147 142 141
f 149 154 148
f 152 145 146 153
f 150 143 144 151
f 151 144 145 152
f 149 142 143 150
f 153 146 147 154
f 148 141 142 149
f 160 159 158 157
f 167 164 165 166
f 157 156 161 160
f 164 167 168 163
f 161 156 155
f 163 168 162
f 166 159 160 167
f 164 157 158 165
f 165 158 159 166
f 163 156 157 164
f 167 160 161 168
f 162 155 156 163
f 89 141 148 88
f 98 147 141 89
f 97 154 147 98
f 88 148 154 97
f 86 127 134 85
f 95 133 127 86
f 94 140 133 95
f 85 134 140 94
f 83 155 162 82
f 92 161 155 83
f 91 168 161 92
f 82 162 168 91
